<svg width="994" height="994" viewBox="0 0 994 994" fill="none" xmlns="http://www.w3.org/2000/svg">
<path d="M45.1953 225.917C45.1953 126.105 126.109 45.1914 225.921 45.1914H768.097C867.909 45.1914 948.823 126.105 948.823 225.917V768.093C948.823 867.905 867.909 948.819 768.097 948.819H225.921C126.109 948.819 45.1953 867.905 45.1953 768.093V225.917Z" fill="#FA660F"/>
<path fill-rule="evenodd" clip-rule="evenodd" d="M225.907 0H768.083C892.848 0 993.99 101.142 993.99 225.907V768.083C993.99 892.848 892.848 993.99 768.083 993.99H225.907C101.142 993.99 0 892.848 0 768.083V225.907C0 101.142 101.142 0 225.907 0ZM225.907 45.1814C126.095 45.1814 45.1814 126.095 45.1814 225.907V768.083C45.1814 867.895 126.095 948.809 225.907 948.809H768.083C867.895 948.809 948.809 867.895 948.809 768.083V225.907C948.809 126.095 867.895 45.1814 768.083 45.1814H225.907Z" fill="#FA660F"/>
<path d="M631.371 357.01C614.021 342.913 596.672 332.612 579.322 326.106C561.973 319.058 545.166 315.534 528.9 315.534C508.298 315.534 491.49 320.413 478.478 330.172C465.466 339.931 458.96 352.673 458.96 368.396C458.96 379.239 462.213 388.185 468.719 395.233C475.225 402.281 483.629 408.516 493.93 413.938C504.774 418.818 516.701 423.155 529.714 426.95C543.268 430.745 556.551 434.812 569.563 439.149C621.612 456.498 659.564 479.812 683.419 509.089C707.817 537.824 720.016 575.505 720.016 622.132C720.016 653.578 714.594 682.042 703.751 707.524C693.45 733.006 677.998 754.964 657.395 773.398C637.335 791.29 612.395 805.115 582.575 814.874C553.298 825.176 519.954 830.326 482.545 830.326C405.014 830.326 333.176 807.284 267.031 761.199L335.345 632.704C359.2 653.849 382.785 669.572 406.098 679.873C429.412 690.175 452.454 695.325 475.225 695.325C501.25 695.325 520.497 689.361 532.967 677.434C545.979 665.506 552.485 651.952 552.485 636.771C552.485 627.554 550.858 619.692 547.605 613.186C544.352 606.138 538.931 599.903 531.34 594.481C523.75 588.517 513.72 583.096 501.25 578.216C489.322 573.337 474.683 567.915 457.334 561.951C436.731 555.445 416.4 548.397 396.339 540.806C376.821 532.674 359.201 522.101 343.478 509.089C328.297 496.077 315.827 479.812 306.068 460.294C296.851 440.233 292.242 415.022 292.242 384.661C292.242 354.299 297.122 326.919 306.881 302.522C317.182 277.582 331.279 256.437 349.17 239.087C367.604 221.196 389.833 207.37 415.857 197.611C442.424 187.852 471.972 182.973 504.503 182.973C534.864 182.973 566.581 187.31 599.654 195.985C632.726 204.117 664.443 216.316 694.805 232.581L631.371 357.01Z" fill="black"/>
</svg>
